<?xml version="1.0" encoding="UTF-8"?>
<svg xmlns="http://www.w3.org/2000/svg" width="390" height="844" viewBox="0 0 390 844">
  <defs>
    <clipPath id="screen"><rect x="0" y="0" width="390" height="844" rx="0"/></clipPath>
    <filter id="shadow" x="-2%" y="-2%" width="104%" height="104%">
      <feDropShadow dx="0" dy="1" stdDeviation="2" flood-opacity="0.08"/>
    </filter>
  </defs>
  <rect width="390" height="844" rx="40" fill="#222" stroke="#444" stroke-width="2"/>
  <rect x="12" y="12" width="366" height="820" rx="30" fill="#FFFBF7"/>
  <g clip-path="url(#screen)">
    <rect x="12" y="12" width="366" height="44" fill="#00000010"/>
    <text x="36" y="40" font-family="-apple-system, system-ui, sans-serif" font-size="14" fill="#1C1B1F" font-weight="600">9:41</text>
    <text x="330" y="40" font-family="-apple-system, system-ui, sans-serif" font-size="14" fill="#1C1B1F">📶 🔋</text>
    人物详情阅览态（原型 #02）
    
    <rect x="12" y="56" width="366" height="48" fill="#FFFBF7"/>
    <text x="28" y="85" font-family="-apple-system, system-ui, sans-serif" font-size="18" fill="#1C1B1F" font-weight="600">← 小明</text>
    <text x="340" y="85" font-family="-apple-system, system-ui, sans-serif" font-size="14" fill="#B85C38" font-weight="500" text-anchor="end">编辑</text>
    <line x1="28" y1="108" x2="362" y2="108" stroke="#CAC4D0" stroke-width="0.5"/>
    
    <circle cx="52" cy="148" r="28" fill="#F4E7DF" stroke="#CAC4D0" stroke-width="1"/>
    <text x="52" y="153" font-family="-apple-system, system-ui, sans-serif" font-size="16" fill="#B85C38" text-anchor="middle" font-weight="600">小</text>
    <text x="92" y="138" font-family="-apple-system, system-ui, sans-serif" font-size="16" fill="#1C1B1F" font-weight="600">小明</text>
    <text x="92" y="158" font-family="-apple-system, system-ui, sans-serif" font-size="12" fill="#666666">宝宝 · 男 · 2024-08-15</text>
    <text x="92" y="175" font-family="-apple-system, system-ui, sans-serif" font-size="11" fill="#999999">128 张照片 · 3 个故事</text>
    <rect x="92" y="165" width="72" height="28" rx="14" fill="#B85C38" opacity="0.9"/>
    <text x="128" y="183" font-family="-apple-system, system-ui, sans-serif" font-size="11" fill="#FFFFFF" text-anchor="middle">＋添加照片</text>
  
    <line x1="28" y1="190" x2="362" y2="190" stroke="#CAC4D0" stroke-width="0.5"/>
    
    <rect x="0" y="205" width="390" height="32" fill="#FFFBF7" opacity="0.95"/>
    <text x="28" y="227" font-family="-apple-system, system-ui, sans-serif" font-size="15" fill="#1C1B1F" font-weight="600">2025 年 10 月</text>
  
    
        <rect x="28" y="230" width="106" height="80" rx="8" fill="#FAFAFA" stroke="#CAC4D0" stroke-width="1"/>
        <polygon points="32,234 58,240 36,260" fill="#CAC4D0" opacity="0.5"/>
      
        <rect x="140" y="230" width="106" height="80" rx="8" fill="#FAFAFA" stroke="#CAC4D0" stroke-width="1"/>
        <polygon points="144,234 170,240 148,260" fill="#CAC4D0" opacity="0.5"/>
      
        <rect x="252" y="230" width="106" height="80" rx="8" fill="#FAFAFA" stroke="#CAC4D0" stroke-width="1"/>
        <polygon points="256,234 282,240 260,260" fill="#CAC4D0" opacity="0.5"/>
      
        <rect x="28" y="316" width="106" height="80" rx="8" fill="#FAFAFA" stroke="#CAC4D0" stroke-width="1"/>
        <polygon points="32,320 58,326 36,346" fill="#CAC4D0" opacity="0.5"/>
      
        <rect x="140" y="316" width="106" height="80" rx="12" fill="#F4E7DF" stroke="#CAC4D0" stroke-width="1"/>
        <rect x="186" y="374" width="52" height="18" rx="9" fill="#B85C38" opacity="0.85"/>
        <text x="212" y="386" font-family="-apple-system, system-ui, sans-serif" font-size="9" fill="#FFFFFF" text-anchor="middle">📖 国庆游</text>
      
        <rect x="252" y="316" width="106" height="80" rx="8" fill="#FAFAFA" stroke="#CAC4D0" stroke-width="1"/>
        <polygon points="256,320 282,326 260,346" fill="#CAC4D0" opacity="0.5"/>
      
    
    <rect x="28" y="420" width="334" height="24" rx="4" fill="#F5F5F5"/>
    <text x="36" y="436" font-family="-apple-system, system-ui, sans-serif" font-size="12" fill="#B85C38">📖 国庆游 · 12 张  →</text>
  
    
    <rect x="0" y="450" width="390" height="32" fill="#FFFBF7" opacity="0.95"/>
    <text x="28" y="472" font-family="-apple-system, system-ui, sans-serif" font-size="15" fill="#1C1B1F" font-weight="600">2025 年 8 月</text>
  
    
        <rect x="28" y="475" width="106" height="80" rx="8" fill="#FAFAFA" stroke="#CAC4D0" stroke-width="1"/>
        <polygon points="32,479 58,485 36,505" fill="#CAC4D0" opacity="0.5"/>
      
        <rect x="140" y="475" width="106" height="80" rx="8" fill="#FAFAFA" stroke="#CAC4D0" stroke-width="1"/>
        <polygon points="144,479 170,485 148,505" fill="#CAC4D0" opacity="0.5"/>
      
        <rect x="252" y="475" width="106" height="80" rx="12" fill="#F4E7DF" stroke="#CAC4D0" stroke-width="1"/>
        <rect x="298" y="533" width="52" height="18" rx="9" fill="#B85C38" opacity="0.85"/>
        <text x="324" y="545" font-family="-apple-system, system-ui, sans-serif" font-size="9" fill="#FFFFFF" text-anchor="middle">📖 家庭聚会</text>
      
        <rect x="28" y="561" width="106" height="80" rx="8" fill="#FAFAFA" stroke="#CAC4D0" stroke-width="1"/>
        <polygon points="32,565 58,571 36,591" fill="#CAC4D0" opacity="0.5"/>
      
        <rect x="140" y="561" width="106" height="80" rx="8" fill="#FAFAFA" stroke="#CAC4D0" stroke-width="1"/>
        <polygon points="144,565 170,571 148,591" fill="#CAC4D0" opacity="0.5"/>
      
        <rect x="252" y="561" width="106" height="80" rx="8" fill="#FAFAFA" stroke="#CAC4D0" stroke-width="1"/>
        <polygon points="256,565 282,571 260,591" fill="#CAC4D0" opacity="0.5"/>
      
  
    <rect x="12" y="768" width="366" height="64" fill="#FAFAFA"/>
    <line x1="12" y1="768" x2="378" y2="768" stroke="#CAC4D0" stroke-width="0.5"/>
    <text x="195" y="790" font-family="-apple-system, system-ui, sans-serif" font-size="13" fill="#B85C38" font-weight="600" text-anchor="middle">人物</text>
    <rect x="120" y="799" width="28" height="3" rx="1.5" fill="#B85C38"/>
    <text x="195" y="816" font-family="-apple-system, system-ui, sans-serif" font-size="13" fill="#666666" font-weight="400" text-anchor="middle">故事</text>
    
  </g>
</svg>