<?xml version="1.0" encoding="UTF-8"?>
<svg xmlns="http://www.w3.org/2000/svg" width="390" height="844" viewBox="0 0 390 844">
  <defs>
    <clipPath id="screen"><rect x="0" y="0" width="390" height="844" rx="0"/></clipPath>
    <filter id="shadow" x="-2%" y="-2%" width="104%" height="104%">
      <feDropShadow dx="0" dy="1" stdDeviation="2" flood-opacity="0.08"/>
    </filter>
  </defs>
  <rect width="390" height="844" rx="40" fill="#222" stroke="#444" stroke-width="2"/>
  <rect x="12" y="12" width="366" height="820" rx="30" fill="#FFFBF7"/>
  <g clip-path="url(#screen)">
    <rect x="12" y="12" width="366" height="44" fill="#00000010"/>
    <text x="36" y="40" font-family="-apple-system, system-ui, sans-serif" font-size="14" fill="#1C1B1F" font-weight="600">9:41</text>
    <text x="330" y="40" font-family="-apple-system, system-ui, sans-serif" font-size="14" fill="#1C1B1F">📶 🔋</text>
    故事详情阅览态（原型 #05）
    
    <rect x="12" y="56" width="366" height="48" fill="#FFFBF7"/>
    <text x="28" y="85" font-family="-apple-system, system-ui, sans-serif" font-size="18" fill="#1C1B1F" font-weight="600">← 国庆游</text>
    <text x="340" y="85" font-family="-apple-system, system-ui, sans-serif" font-size="14" fill="#B85C38" font-weight="500" text-anchor="end">编辑</text>
    <line x1="28" y1="108" x2="362" y2="108" stroke="#CAC4D0" stroke-width="0.5"/>
    
    <rect x="28" y="120" width="334" height="76" rx="10" fill="#FAFAFA" stroke="#CAC4D0" stroke-width="1"/>
    <rect x="158" y="142" width="74" height="32" rx="16" fill="#F5F5F5"/>
    <text x="195" y="162" font-family="-apple-system, system-ui, sans-serif" font-size="14" fill="#999999" text-anchor="middle">🖼️ 封面</text>
  
    <text x="28" y="210" font-family="-apple-system, system-ui, sans-serif" font-size="13" fill="#666666">2025-10-01 ~ 2025-10-07  ·  北京</text>
    
    <rect x="28" y="235" width="52" height="24" rx="12" fill="#F4E7DF"/>
    <text x="54" y="251" font-family="-apple-system, system-ui, sans-serif" font-size="10" fill="#B85C38" text-anchor="middle">#旅行</text>
    <rect x="86" y="235" width="52" height="24" rx="12" fill="#F4E7DF"/>
    <text x="112" y="251" font-family="-apple-system, system-ui, sans-serif" font-size="10" fill="#B85C38" text-anchor="middle">#国庆</text>
    <rect x="144" y="235" width="52" height="24" rx="12" fill="#F4E7DF"/>
    <text x="170" y="251" font-family="-apple-system, system-ui, sans-serif" font-size="10" fill="#B85C38" text-anchor="middle">#家庭</text>
    <text x="202" y="251" font-family="-apple-system, system-ui, sans-serif" font-size="10" fill="#999999">＋2</text>
  
    
    <circle cx="40" cy="280" r="18" fill="#FAFAFA" stroke="#CAC4D0" stroke-width="1"/>
    <text x="40" y="285" font-family="-apple-system, system-ui, sans-serif" font-size="11" fill="#49454F" text-anchor="middle">明</text>
    <text x="40" y="304" font-family="-apple-system, system-ui, sans-serif" font-size="9" fill="#999999" text-anchor="middle">小明</text>
    <circle cx="88" cy="280" r="18" fill="#FAFAFA" stroke="#CAC4D0" stroke-width="1"/>
    <text x="88" y="285" font-family="-apple-system, system-ui, sans-serif" font-size="11" fill="#49454F" text-anchor="middle">华</text>
    <text x="88" y="304" font-family="-apple-system, system-ui, sans-serif" font-size="9" fill="#999999" text-anchor="middle">小华</text>
    <circle cx="136" cy="280" r="18" fill="#FAFAFA" stroke="#CAC4D0" stroke-width="1"/>
    <text x="136" y="285" font-family="-apple-system, system-ui, sans-serif" font-size="11" fill="#49454F" text-anchor="middle">爷</text>
    <text x="136" y="304" font-family="-apple-system, system-ui, sans-serif" font-size="9" fill="#999999" text-anchor="middle">爷爷</text>
  
    <text x="28" y="324" font-family="-apple-system, system-ui, sans-serif" font-size="15" fill="#1C1B1F" font-weight="500">24 张照片</text>
    <rect x="240" y="310" width="70" height="28" rx="14" fill="#B85C38" opacity="0.9"/>
    <text x="275" y="329" font-family="-apple-system, system-ui, sans-serif" font-size="11" fill="#FFFFFF" text-anchor="middle">＋添加照片</text>
    
        <rect x="28" y="340" width="106" height="80" rx="8" fill="#FAFAFA" stroke="#CAC4D0" stroke-width="1"/>
        <polygon points="32,344 58,350 36,370" fill="#CAC4D0" opacity="0.5"/>
      
        <rect x="140" y="340" width="106" height="80" rx="8" fill="#FAFAFA" stroke="#CAC4D0" stroke-width="1"/>
        <polygon points="144,344 170,350 148,370" fill="#CAC4D0" opacity="0.5"/>
      
        <rect x="252" y="340" width="106" height="80" rx="8" fill="#FAFAFA" stroke="#CAC4D0" stroke-width="1"/>
        <polygon points="256,344 282,350 260,370" fill="#CAC4D0" opacity="0.5"/>
      
        <rect x="28" y="426" width="106" height="80" rx="8" fill="#FAFAFA" stroke="#CAC4D0" stroke-width="1"/>
        <polygon points="32,430 58,436 36,456" fill="#CAC4D0" opacity="0.5"/>
      
        <rect x="140" y="426" width="106" height="80" rx="8" fill="#FAFAFA" stroke="#CAC4D0" stroke-width="1"/>
        <polygon points="144,430 170,436 148,456" fill="#CAC4D0" opacity="0.5"/>
      
        <rect x="252" y="426" width="106" height="80" rx="8" fill="#FAFAFA" stroke="#CAC4D0" stroke-width="1"/>
        <polygon points="256,430 282,436 260,456" fill="#CAC4D0" opacity="0.5"/>
      
        <rect x="28" y="512" width="106" height="80" rx="8" fill="#FAFAFA" stroke="#CAC4D0" stroke-width="1"/>
        <polygon points="32,516 58,522 36,542" fill="#CAC4D0" opacity="0.5"/>
      
        <rect x="140" y="512" width="106" height="80" rx="8" fill="#FAFAFA" stroke="#CAC4D0" stroke-width="1"/>
        <polygon points="144,516 170,522 148,542" fill="#CAC4D0" opacity="0.5"/>
      
        <rect x="252" y="512" width="106" height="80" rx="8" fill="#FAFAFA" stroke="#CAC4D0" stroke-width="1"/>
        <polygon points="256,516 282,522 260,542" fill="#CAC4D0" opacity="0.5"/>
      
  
    <rect x="12" y="768" width="366" height="64" fill="#FAFAFA"/>
    <line x1="12" y1="768" x2="378" y2="768" stroke="#CAC4D0" stroke-width="0.5"/>
    <text x="195" y="790" font-family="-apple-system, system-ui, sans-serif" font-size="13" fill="#B85C38" font-weight="600" text-anchor="middle">人物</text>
    <rect x="120" y="799" width="28" height="3" rx="1.5" fill="#B85C38"/>
    <text x="195" y="816" font-family="-apple-system, system-ui, sans-serif" font-size="13" fill="#666666" font-weight="400" text-anchor="middle">故事</text>
    
  </g>
</svg>