<?xml version="1.0" encoding="UTF-8"?>
<svg xmlns="http://www.w3.org/2000/svg" width="390" height="844" viewBox="0 0 390 844">
  <defs>
    <clipPath id="screen"><rect x="0" y="0" width="390" height="844" rx="0"/></clipPath>
    <filter id="shadow" x="-2%" y="-2%" width="104%" height="104%">
      <feDropShadow dx="0" dy="1" stdDeviation="2" flood-opacity="0.08"/>
    </filter>
  </defs>
  <rect width="390" height="844" rx="40" fill="#222" stroke="#444" stroke-width="2"/>
  <rect x="12" y="12" width="366" height="820" rx="30" fill="#FFFBF7"/>
  <g clip-path="url(#screen)">
    <rect x="12" y="12" width="366" height="44" fill="#00000010"/>
    <text x="36" y="40" font-family="-apple-system, system-ui, sans-serif" font-size="14" fill="#1C1B1F" font-weight="600">9:41</text>
    <text x="330" y="40" font-family="-apple-system, system-ui, sans-serif" font-size="14" fill="#1C1B1F">📶 🔋</text>
    故事详情编辑态（原型 #06）
    
    <rect x="12" y="56" width="366" height="48" fill="#FFFBF7"/>
    <text x="28" y="85" font-family="-apple-system, system-ui, sans-serif" font-size="18" fill="#1C1B1F" font-weight="600">← 编辑故事</text>
    <text x="340" y="85" font-family="-apple-system, system-ui, sans-serif" font-size="14" fill="#B85C38" font-weight="500" text-anchor="end">保存</text>
    <line x1="28" y1="108" x2="362" y2="108" stroke="#CAC4D0" stroke-width="0.5"/>
    
    <text x="28" y="136" font-family="-apple-system, system-ui, sans-serif" font-size="13" fill="#49454F">标题</text>
    <rect x="28" y="145" width="334" height="40" rx="10" fill="#FAFAFA" stroke="#CAC4D0" stroke-width="1"/>
    <text x="40" y="170" font-family="-apple-system, system-ui, sans-serif" font-size="14" fill="#1C1B1F">国庆游</text>
  
    
    <text x="28" y="196" font-family="-apple-system, system-ui, sans-serif" font-size="13" fill="#49454F">描述</text>
    <rect x="28" y="205" width="334" height="56" rx="10" fill="#FAFAFA" stroke="#CAC4D0" stroke-width="1"/>
    <text x="40" y="225" font-family="-apple-system, system-ui, sans-serif" font-size="12" fill="#666666">2025 年国庆，全家一起去了北京旅行...</text>
  
    
    <text x="28" y="276" font-family="-apple-system, system-ui, sans-serif" font-size="13" fill="#49454F">封面</text>
    <rect x="28" y="285" width="90" height="32" rx="16" fill="#E3F2FD"/>
    <text x="73" y="305" font-family="-apple-system, system-ui, sans-serif" font-size="12" fill="#1565C0" text-anchor="middle">选择封面</text>
  
    
    <text x="28" y="326" font-family="-apple-system, system-ui, sans-serif" font-size="13" fill="#49454F">地点</text>
    <rect x="28" y="335" width="334" height="40" rx="10" fill="#FAFAFA" stroke="#CAC4D0" stroke-width="1"/>
    <text x="40" y="360" font-family="-apple-system, system-ui, sans-serif" font-size="14" fill="#1C1B1F">北京</text>
  
    
    <text x="28" y="386" font-family="-apple-system, system-ui, sans-serif" font-size="13" fill="#49454F">开始日期</text>
    <text x="28" y="392" font-family="-apple-system, system-ui, sans-serif" font-size="14" fill="#1C1B1F">2025-10-01</text>
    
    <rect x="130" y="382" width="24" height="24" rx="6" fill="#FAFAFA" stroke="#CAC4D0" stroke-width="1"/>
    <text x="142" y="398" font-family="-apple-system, system-ui, sans-serif" font-size="11" fill="#49454F" text-anchor="middle">📅</text>
  
  
    
    <text x="28" y="416" font-family="-apple-system, system-ui, sans-serif" font-size="13" fill="#49454F">结束日期</text>
    <text x="28" y="422" font-family="-apple-system, system-ui, sans-serif" font-size="14" fill="#1C1B1F">2025-10-07</text>
    
    <rect x="130" y="412" width="24" height="24" rx="6" fill="#FAFAFA" stroke="#CAC4D0" stroke-width="1"/>
    <text x="142" y="428" font-family="-apple-system, system-ui, sans-serif" font-size="11" fill="#49454F" text-anchor="middle">📅</text>
  
  
    
    <text x="28" y="456" font-family="-apple-system, system-ui, sans-serif" font-size="13" fill="#49454F">自定义标签</text>
    <text x="28" y="458" font-family="-apple-system, system-ui, sans-serif" font-size="12" fill="#49454F">输入标签</text>
    <text x="300" y="458" font-family="-apple-system, system-ui, sans-serif" font-size="12" fill="#1565C0" text-anchor="end">添加</text>
    
    <rect x="28" y="470" width="50" height="22" rx="11" fill="#F4E7DF"/>
    <text x="34" y="485" font-family="-apple-system, system-ui, sans-serif" font-size="10" fill="#B85C38">#旅行 ✕</text>
  
    
    <rect x="72" y="470" width="50" height="22" rx="11" fill="#F4E7DF"/>
    <text x="78" y="485" font-family="-apple-system, system-ui, sans-serif" font-size="10" fill="#B85C38">#国庆 ✕</text>
  
    
    <rect x="116" y="470" width="50" height="22" rx="11" fill="#F4E7DF"/>
    <text x="122" y="485" font-family="-apple-system, system-ui, sans-serif" font-size="10" fill="#B85C38">#家庭 ✕</text>
  
  
    <rect x="28" y="510" width="334" height="40" rx="8" fill="#F5F5F5"/>
    <text x="195" y="535" font-family="-apple-system, system-ui, sans-serif" font-size="13" fill="#C62828" text-anchor="middle">删除故事</text>
  
    <rect x="12" y="768" width="366" height="64" fill="#FAFAFA"/>
    <line x1="12" y1="768" x2="378" y2="768" stroke="#CAC4D0" stroke-width="0.5"/>
    <text x="195" y="790" font-family="-apple-system, system-ui, sans-serif" font-size="13" fill="#B85C38" font-weight="600" text-anchor="middle">人物</text>
    <rect x="120" y="799" width="28" height="3" rx="1.5" fill="#B85C38"/>
    <text x="195" y="816" font-family="-apple-system, system-ui, sans-serif" font-size="13" fill="#666666" font-weight="400" text-anchor="middle">故事</text>
    
  </g>
</svg>