<?xml version="1.0" encoding="UTF-8"?>
<svg xmlns="http://www.w3.org/2000/svg" width="390" height="844" viewBox="0 0 390 844">
  <defs>
    <clipPath id="screen"><rect x="0" y="0" width="390" height="844" rx="0"/></clipPath>
    <filter id="shadow" x="-2%" y="-2%" width="104%" height="104%">
      <feDropShadow dx="0" dy="1" stdDeviation="2" flood-opacity="0.08"/>
    </filter>
  </defs>
  <rect width="390" height="844" rx="40" fill="#222" stroke="#444" stroke-width="2"/>
  <rect x="12" y="12" width="366" height="820" rx="30" fill="#FFFBF7"/>
  <g clip-path="url(#screen)">
    <rect x="12" y="12" width="366" height="44" fill="#00000010"/>
    <text x="36" y="40" font-family="-apple-system, system-ui, sans-serif" font-size="14" fill="#1C1B1F" font-weight="600">9:41</text>
    <text x="330" y="40" font-family="-apple-system, system-ui, sans-serif" font-size="14" fill="#1C1B1F">📶 🔋</text>
    全屏浏览 PhotoSwiper（原型 #07）
    
    <rect x="12" y="56" width="366" height="712" fill="#000000"/>
    <rect x="12" y="56" width="366" height="48" fill="url(#topGrad)"/>
    <defs><linearGradient id="topGrad" x1="0" y1="0" x2="0" y2="1"><stop offset="0%" stop-color="#000" stop-opacity="0.6"/><stop offset="100%" stop-color="#000" stop-opacity="0"/></linearGradient></defs>
    <text x="36" y="85" font-family="-apple-system, system-ui, sans-serif" font-size="15" fill="#FFFFFF">← 2024-08-15</text>
    <text x="310" y="85" font-family="-apple-system, system-ui, sans-serif" font-size="13" fill="#FFFFFF" text-anchor="end">3 / 24</text>
    <text x="360" y="85" font-family="-apple-system, system-ui, sans-serif" font-size="18" fill="#FFFFFF" text-anchor="end">⋮</text>
    <rect x="60" y="240" width="270" height="320" rx="4" fill="#FAFAFA" opacity="0.15"/>
    <rect x="70" y="250" width="250" height="300" rx="2" fill="#F5F5F5" opacity="0.08"/>
    <text x="195" y="410" font-family="-apple-system, system-ui, sans-serif" font-size="14" fill="#FFFFFF" opacity="0.5" text-anchor="middle">📷 照片全屏预览</text>
    <text x="28" y="730" font-family="-apple-system, system-ui, sans-serif" font-size="11" fill="#FFFFFF" opacity="0.4">← 左右滑动切换  |   ↓ 下滑关闭</text>
  
    <rect x="12" y="768" width="366" height="64" fill="#FAFAFA"/>
    <line x1="12" y1="768" x2="378" y2="768" stroke="#CAC4D0" stroke-width="0.5"/>
    <text x="195" y="790" font-family="-apple-system, system-ui, sans-serif" font-size="13" fill="#B85C38" font-weight="600" text-anchor="middle">人物</text>
    <rect x="120" y="799" width="28" height="3" rx="1.5" fill="#B85C38"/>
    <text x="195" y="816" font-family="-apple-system, system-ui, sans-serif" font-size="13" fill="#666666" font-weight="400" text-anchor="middle">故事</text>
    
  </g>
</svg>