<?xml version="1.0" encoding="UTF-8"?>
<svg xmlns="http://www.w3.org/2000/svg" width="390" height="844" viewBox="0 0 390 844">
  <defs>
    <clipPath id="screen"><rect x="0" y="0" width="390" height="844" rx="0"/></clipPath>
    <filter id="shadow" x="-2%" y="-2%" width="104%" height="104%">
      <feDropShadow dx="0" dy="1" stdDeviation="2" flood-opacity="0.08"/>
    </filter>
  </defs>
  <rect width="390" height="844" rx="40" fill="#222" stroke="#444" stroke-width="2"/>
  <rect x="12" y="12" width="366" height="820" rx="30" fill="#FFFBF7"/>
  <g clip-path="url(#screen)">
    <rect x="12" y="12" width="366" height="44" fill="#00000010"/>
    <text x="36" y="40" font-family="-apple-system, system-ui, sans-serif" font-size="14" fill="#1C1B1F" font-weight="600">9:41</text>
    <text x="330" y="40" font-family="-apple-system, system-ui, sans-serif" font-size="14" fill="#1C1B1F">📶 🔋</text>
    建议审阅 SuggestPage（原型 #09）
    
    <rect x="12" y="56" width="366" height="48" fill="#FFFBF7"/>
    <text x="28" y="85" font-family="-apple-system, system-ui, sans-serif" font-size="18" fill="#1C1B1F" font-weight="600">← 照片归属建议</text>
    <text x="340" y="85" font-family="-apple-system, system-ui, sans-serif" font-size="14" fill="#B85C38" font-weight="500" text-anchor="end"></text>
    <rect x="28" y="115" width="334" height="44" rx="10" fill="#E3F2FD"/>
    <text x="40" y="132" font-family="-apple-system, system-ui, sans-serif" font-size="12" fill="#1565C0">以下为本地分析推测，需您确认</text>
    <text x="40" y="150" font-family="-apple-system, system-ui, sans-serif" font-size="11" fill="#1565C0">不会自动写入相册</text>
    
    <rect x="28" y="175" width="334" height="68" rx="10" fill="#F5F5F5" stroke="#CAC4D0" stroke-width="1"/>
    <rect x="36" y="183" width="52" height="52" rx="6" fill="#FAFAFA" stroke="#CAC4D0" stroke-width="1"/>
    <text x="62" y="215" font-family="-apple-system, system-ui, sans-serif" font-size="16" fill="#999999" text-anchor="middle">🖼️</text>
    <text x="96" y="197" font-family="-apple-system, system-ui, sans-serif" font-size="14" fill="#1C1B1F" font-weight="500">建议：归入「小明」</text>
    <text x="96" y="217" font-family="-apple-system, system-ui, sans-serif" font-size="11" fill="#666666">置信度 92% · 2025-10-02</text>
    <text x="320" y="197" font-family="-apple-system, system-ui, sans-serif" font-size="11" fill="#2E7D32" text-anchor="end">已接受 ✅</text>
  
    
    <rect x="28" y="260" width="334" height="68" rx="10" fill="#F5F5F5" stroke="#CAC4D0" stroke-width="1"/>
    <rect x="36" y="268" width="52" height="52" rx="6" fill="#FAFAFA" stroke="#CAC4D0" stroke-width="1"/>
    <text x="62" y="300" font-family="-apple-system, system-ui, sans-serif" font-size="16" fill="#999999" text-anchor="middle">🖼️</text>
    <text x="96" y="282" font-family="-apple-system, system-ui, sans-serif" font-size="14" fill="#1C1B1F" font-weight="500">建议：归入「爷爷」</text>
    <text x="96" y="302" font-family="-apple-system, system-ui, sans-serif" font-size="11" fill="#666666">置信度 85% · 2025-09-30</text>
    <rect x="240" y="264" width="54" height="28" rx="14" fill="#B85C38"/><text x="267" y="282" font-family="-apple-system, system-ui, sans-serif" font-size="11" fill="#FFFFFF" text-anchor="middle">接受</text><rect x="300" y="264" width="54" height="28" rx="14" fill="#FAFAFA" stroke="#CAC4D0" stroke-width="1"/><text x="327" y="282" font-family="-apple-system, system-ui, sans-serif" font-size="11" fill="#49454F" text-anchor="middle">忽略</text>
  
    
    <rect x="28" y="345" width="334" height="68" rx="10" fill="#F5F5F5" stroke="#CAC4D0" stroke-width="1"/>
    <rect x="36" y="353" width="52" height="52" rx="6" fill="#FAFAFA" stroke="#CAC4D0" stroke-width="1"/>
    <text x="62" y="385" font-family="-apple-system, system-ui, sans-serif" font-size="16" fill="#999999" text-anchor="middle">🖼️</text>
    <text x="96" y="367" font-family="-apple-system, system-ui, sans-serif" font-size="14" fill="#1C1B1F" font-weight="500">建议：归入「小明」</text>
    <text x="96" y="387" font-family="-apple-system, system-ui, sans-serif" font-size="11" fill="#666666">置信度 78% · 2025-08-15</text>
    <text x="320" y="367" font-family="-apple-system, system-ui, sans-serif" font-size="11" fill="#2E7D32" text-anchor="end">已接受 ✅</text>
  
    
    <rect x="28" y="430" width="334" height="68" rx="10" fill="#F5F5F5" stroke="#CAC4D0" stroke-width="1"/>
    <rect x="36" y="438" width="52" height="52" rx="6" fill="#FAFAFA" stroke="#CAC4D0" stroke-width="1"/>
    <text x="62" y="470" font-family="-apple-system, system-ui, sans-serif" font-size="16" fill="#999999" text-anchor="middle">🖼️</text>
    <text x="96" y="452" font-family="-apple-system, system-ui, sans-serif" font-size="14" fill="#1C1B1F" font-weight="500">建议：归入「小华」</text>
    <text x="96" y="472" font-family="-apple-system, system-ui, sans-serif" font-size="11" fill="#666666">置信度 65% · 2025-07-20</text>
    <text x="320" y="452" font-family="-apple-system, system-ui, sans-serif" font-size="11" fill="#888888" text-anchor="end">已忽略 ⏭</text>
  
  
    <rect x="12" y="768" width="366" height="64" fill="#FAFAFA"/>
    <line x1="12" y1="768" x2="378" y2="768" stroke="#CAC4D0" stroke-width="0.5"/>
    <text x="195" y="790" font-family="-apple-system, system-ui, sans-serif" font-size="13" fill="#B85C38" font-weight="600" text-anchor="middle">人物</text>
    <rect x="120" y="799" width="28" height="3" rx="1.5" fill="#B85C38"/>
    <text x="195" y="816" font-family="-apple-system, system-ui, sans-serif" font-size="13" fill="#666666" font-weight="400" text-anchor="middle">故事</text>
    
  </g>
</svg>