<?xml version="1.0" encoding="UTF-8"?>
<svg xmlns="http://www.w3.org/2000/svg" width="390" height="844" viewBox="0 0 390 844">
  <defs>
    <clipPath id="screen"><rect x="0" y="0" width="390" height="844" rx="0"/></clipPath>
    <filter id="shadow" x="-2%" y="-2%" width="104%" height="104%">
      <feDropShadow dx="0" dy="1" stdDeviation="2" flood-opacity="0.08"/>
    </filter>
  </defs>
  <rect width="390" height="844" rx="40" fill="#222" stroke="#444" stroke-width="2"/>
  <rect x="12" y="12" width="366" height="820" rx="30" fill="#FFFBF7"/>
  <g clip-path="url(#screen)">
    <rect x="12" y="12" width="366" height="44" fill="#00000010"/>
    <text x="36" y="40" font-family="-apple-system, system-ui, sans-serif" font-size="14" fill="#1C1B1F" font-weight="600">9:41</text>
    <text x="330" y="40" font-family="-apple-system, system-ui, sans-serif" font-size="14" fill="#1C1B1F">📶 🔋</text>
    导入条件页（原型 #10）
    
    <rect x="12" y="56" width="366" height="48" fill="#FFFBF7"/>
    <text x="28" y="85" font-family="-apple-system, system-ui, sans-serif" font-size="18" fill="#1C1B1F" font-weight="600">← 导入条件</text>
    <text x="340" y="85" font-family="-apple-system, system-ui, sans-serif" font-size="14" fill="#B85C38" font-weight="500" text-anchor="end"></text>
    <text x="28" y="122" font-family="-apple-system, system-ui, sans-serif" font-size="11" fill="#999999">选图 → 导入准备 → ● 条件 → 扫描中 → 候选确认 → 完成</text>
    <text x="28" y="142" font-family="-apple-system, system-ui, sans-serif" font-size="13" fill="#1C1B1F">目标：故事「国庆游」</text>
    <rect x="28" y="155" width="334" height="1" fill="#CAC4D0"/>
    <text x="28" y="175" font-family="-apple-system, system-ui, sans-serif" font-size="13" fill="#49454F" font-weight="500">时间范围</text>
    <rect x="28" y="185" width="155" height="32" rx="16" fill="#FAFAFA" stroke="#CAC4D0" stroke-width="1"/>
    <text x="105" y="205" font-family="-apple-system, system-ui, sans-serif" font-size="12" fill="#1C1B1F" text-anchor="middle">2025-10-01 📅</text>
    <rect x="207" y="185" width="155" height="32" rx="16" fill="#FAFAFA" stroke="#CAC4D0" stroke-width="1"/>
    <text x="284" y="205" font-family="-apple-system, system-ui, sans-serif" font-size="12" fill="#1C1B1F" text-anchor="middle">2025-10-07 📅</text>
    <text x="28" y="245" font-family="-apple-system, system-ui, sans-serif" font-size="13" fill="#49454F" font-weight="500">地点</text>
    <rect x="28" y="255" width="36" height="22" rx="11" fill="#B85C38"/>
    <text x="46" y="270" font-family="-apple-system, system-ui, sans-serif" font-size="10" fill="#FFFFFF" text-anchor="middle">✓</text>
    <text x="72" y="270" font-family="-apple-system, system-ui, sans-serif" font-size="12" fill="#1C1B1F">启用地点筛选</text>
    <text x="28" y="300" font-family="-apple-system, system-ui, sans-serif" font-size="13" fill="#49454F" font-weight="500">人脸</text>
    <rect x="28" y="310" width="36" height="22" rx="11" fill="#B85C38"/>
    <text x="46" y="325" font-family="-apple-system, system-ui, sans-serif" font-size="10" fill="#FFFFFF" text-anchor="middle">✓</text>
    <text x="72" y="325" font-family="-apple-system, system-ui, sans-serif" font-size="12" fill="#1C1B1F">启用人脸条件</text>
    <text x="28" y="355" font-family="-apple-system, system-ui, sans-serif" font-size="12" fill="#666666">多条件关系：仅同时满足（AND）</text>
    <rect x="28" y="380" width="334" height="44" rx="22" fill="#B85C38"/>
    <text x="195" y="407" font-family="-apple-system, system-ui, sans-serif" font-size="14" fill="#FFFFFF" font-weight="600" text-anchor="middle">开始扫描</text>
  
    <rect x="12" y="768" width="366" height="64" fill="#FAFAFA"/>
    <line x1="12" y1="768" x2="378" y2="768" stroke="#CAC4D0" stroke-width="0.5"/>
    <text x="195" y="790" font-family="-apple-system, system-ui, sans-serif" font-size="13" fill="#B85C38" font-weight="600" text-anchor="middle">人物</text>
    <rect x="120" y="799" width="28" height="3" rx="1.5" fill="#B85C38"/>
    <text x="195" y="816" font-family="-apple-system, system-ui, sans-serif" font-size="13" fill="#666666" font-weight="400" text-anchor="middle">故事</text>
    
  </g>
</svg>